<?xml version="1.0" encoding="UTF-8"?>
<svg xmlns="http://www.w3.org/2000/svg" width="512" height="512" viewBox="0 0 512 512" role="img" aria-labelledby="title desc">
  <title id="title">Tiny Stronghold Cartoon Icon (Revised)</title>
  <desc id="desc">A balanced cartoony shield with a bigger tower and centered sprout, emblem-style.</desc>
  <defs>
    <style><![CDATA[
      .shield  { fill:#6BA8FF;stroke:#1F2445; stroke-width:8; stroke-linejoin:round; }
      .tower   { fill:#FFFFFF;stroke:#1F2445; stroke-width:8; stroke-linejoin:round; }
      .door    { fill:#1F2445;stroke:#1F2445; stroke-width:8; stroke-linejoin:round; }
      .window  { fill:#FFCC4D;stroke:#1F2445; stroke-width:8; stroke-linejoin:round; }
      .sprout  { fill:#4CCB68; stroke:#1F2445; stroke-width:6; stroke-linecap:round; }
    ]]></style>
  </defs>

  <!-- Shield shape: flatter bottom, rounded top -->
  <path class="shield" d="M256 40 
                                   Q416 80 416 200 
                                   Q416 340 256 460 
                                   Q96 340 96 200 
                                   Q96 80 256 40 Z"/>

  <!-- Tower, larger and centered -->
  <g transform="translate(156,150)">
    <rect x="40" y="40" width="120" height="150" rx="18" class="tower"/>
    <!-- Door (centered) -->
    <path class="door" d="M80 190 v-30 a28 28 0 0 1 56 0 v30 z"/>
    <!-- Windows -->
    <rect x="58" y="85" width="28" height="36" rx="6" class="window"/>
    <rect x="114" y="85" width="28" height="36" rx="6" class="window"/>
    <!-- Crenellations -->
    <rect x="48" y="10" width="28" height="30" class="tower"/>
    <rect x="86" y="10" width="28" height="30" class="tower"/>
    <rect x="124" y="10" width="28" height="30" class="tower"/>
  </g>

  <!-- Sprout closer to tower top -->
  <g transform="translate(256,140)">
    <line x1="0" y1="0" x2="0" y2="-25" class="sprout"/>
    <path class="sprout" d="M0 -25 C-18 -35, -34 -16, -16 -6 Q0 -3 0 -25 Z"/>
    <path class="sprout" d="M0 -25 C18 -35, 34 -16, 16 -6 Q0 -3 0 -25 Z"/>
  </g>
</svg>
