<?xml version="1.0" encoding="UTF-8"?>
<!-- Godot-safe: no <style>, no gradients/filters; all attributes inline -->
<svg xmlns="http://www.w3.org/2000/svg" width="512" height="512" viewBox="0 0 512 512" role="img" aria-labelledby="title desc">
  <title id="title">Tiny Stronghold Icon (Godot-safe)</title>
  <desc id="desc">Flat shield, chunky tower, sprout; explicit fills/strokes for reliable import in Godot.</desc>

  <!-- Shield -->
  <path d="M256 40 
           Q416 80 416 200 
           Q416 340 256 460 
           Q96 340 96 200 
           Q96 80 256 40 Z"
        fill="#6BA8FF" stroke="#1F2445" stroke-width="8" stroke-linejoin="round"/>

  <!-- Tower group -->
  <g transform="translate(156,150)">
    <!-- Body -->
    <rect x="40" y="40" width="120" height="150" rx="18" fill="#FFFFFF" stroke="#1F2445" stroke-width="8" stroke-linejoin="round"/>
    <!-- Door (centered) -->
    <path d="M96 190 v-50 a28 28 0 0 1 56 0 v50 z" fill="#1F2445" stroke="#1F2445" stroke-width="8" stroke-linejoin="round"/>
    <!-- Windows -->
    <rect x="58" y="90" width="28" height="36" rx="6" fill="#FFCC4D" stroke="#1F2445" stroke-width="8" stroke-linejoin="round"/>
    <rect x="114" y="90" width="28" height="36" rx="6" fill="#FFCC4D" stroke="#1F2445" stroke-width="8" stroke-linejoin="round"/>
    <!-- Crenellations -->
    <rect x="40" y="10" width="28" height="30" fill="#FFFFFF" stroke="#1F2445" stroke-width="8" stroke-linejoin="round"/>
    <rect x="84" y="10" width="28" height="30" fill="#FFFFFF" stroke="#1F2445" stroke-width="8" stroke-linejoin="round"/>
    <rect x="128" y="10" width="28" height="30" fill="#FFFFFF" stroke="#1F2445" stroke-width="8" stroke-linejoin="round"/>
  </g>

  <!-- Sprout -->
  <g transform="translate(256,140)">
    <line x1="0" y1="0" x2="0" y2="-25" stroke="#1F2445" stroke-width="6" stroke-linecap="round"/>
    <path d="M0 -25 C-18 -35, -34 -16, -16 -6 Q0 -3 0 -25 Z" fill="#4CCB68" stroke="#1F2445" stroke-width="6" stroke-linejoin="round"/>
    <path d="M0 -25 C18 -35, 34 -16, 16 -6 Q0 -3 0 -25 Z" fill="#4CCB68" stroke="#1F2445" stroke-width="6" stroke-linejoin="round"/>
  </g>
</svg>
